<?xml version="1.0" standalone="no"?>
<!DOCTYPE svg PUBLIC "-//W3C//DTD SVG 1.1//EN"
  "http://www.w3.org/Graphics/SVG/1.1/DTD/svg11.dtd">
<svg width="46.94955062866211mm" height="31.60200023651123mm" viewBox="-89.70834350585938 -17.569000244140625 46.94955062866211 31.60200023651123" xmlns="http://www.w3.org/2000/svg" version="1.1">
	<title>svgOutput</title>
	<desc>made with tinkercad</desc>
<path d="M -43.758792877197266 -1.7680000066757202 L -43.76092529296875 -1.7640135288238525 L -44.10258102416992 -1.1257431507110596 L -44.708038330078125 1.1102230246251565e-16 L -44.88707733154297 0.3328911066055299 L -45.0998420715332 0.6979757547378541 L -45.394195556640625 1.2030471563339233 L -45.67939376831055 1.6949777603149414 L -45.681671142578125 1.6963201761245728 L -47.57345962524414 2.81295108795166 L -48.80341720581055 3.5383567810058594 L -49.152000427246094 3.7298166751861572 L -50.10004806518555 4.250532150268555 L -52.71943283081055 5.689647197723389 L -52.732147216796875 5.696216106414795 L -52.7624626159668 5.711879730224609 L -52.86704635620117 5.765951156616211 L -52.86723327636719 5.766012668609619 L -55.77547836303711 6.722485542297363 L -56.56905746459961 6.983263969421387 L -57.34400177001953 7.224414348602295 L -58.828128814697266 7.686252117156982 L -60.28572463989258 8.139947891235352 L -60.29374694824219 8.142329216003418 L -60.461036682128906 8.192000389099121 L -61.857887268066406 8.606734275817871 L -63.805320739746094 9.184708595275879 L -64.80867004394531 9.471242904663086 L -65.53600311279297 9.679041862487793 L -67.06875610351562 10.116949081420898 L -67.62257385253906 10.269403457641602 L -70.01991271972656 10.929117202758789 L -70.24251556396484 10.988592147827148 L -72.6080322265625 11.621392250061035 L -72.60935974121094 11.621737480163574 L -72.62699127197266 11.626330375671387 L -72.63721466064453 11.62841510772705 L -73.72799682617188 11.850809097290039 L -74.66828155517578 12.04251766204834 L -74.78800964355469 12.06698989868164 L -74.80657958984375 12.070714950561523 L -76.35443115234375 12.381157875061035 L -76.52386474609375 12.415182113647461 L -76.54045104980469 12.418468475341797 L -77.62394714355469 12.633166313171387 L -77.78558349609375 12.665101051330566 L -78.12300109863281 12.731245040893555 L -78.20800018310547 12.747907638549805 L -78.43885040283203 12.793160438537598 L -78.55130004882812 12.815084457397461 L -78.7029800415039 12.84461498260498 L -78.70342254638672 12.844700813293457 L -78.7039566040039 12.844805717468262 L -78.70426177978516 12.844865798950195 L -78.70561218261719 12.845128059387207 L -78.70647430419922 12.845295906066895 L -78.70647430419922 12.845335960388184 L -78.70647430419922 12.845623970031738 L -78.70647430419922 12.847036361694336 L -78.70647430419922 12.847675323486328 L -78.70647430419922 12.85289478302002 L -78.70647430419922 12.86584186553955 L -78.70649719238281 13.032999992370605 L -78.7066421508789 13.032998085021973 L -78.7069320678711 13.03299331665039 L -83.17254638671875 12.962566375732422 L -88.70673370361328 12.875296592712402 L -88.70774841308594 12.87528133392334 L -88.70811462402344 12.875274658203125 L -88.70834350585938 11.820921897888184 L -88.70832061767578 9.38427448272705 L -88.70830535888672 9.283842086791992 L -88.7081527709961 8.383740425109863 L -88.70812225341797 8.192000389099121 L -88.70800018310547 7.45184850692749 L -88.70797729492188 7.311518669128418 L -88.70829010009766 5.566253662109375 L -88.70829010009766 5.551632404327393 L -88.70829772949219 5.495863914489746 L -88.70829010009766 5.450006008148193 L -88.70817565917969 5.064273834228516 L -88.70806884765625 4.70676326751709 L -88.70802307128906 4.546534538269043 L -88.70751953125 4.546552658081055 L -88.70720672607422 4.54656457901001 L -88.70613098144531 4.546604156494141 L -84.25482940673828 4.71134090423584 L -81.91999816894531 4.797119617462158 L -78.92400360107422 4.907188892364502 L -78.70803833007812 4.915122985839844 L -78.7063217163086 4.915185928344727 L -78.70624542236328 4.915188789367676 L -78.70556640625 4.915213584899902 L -78.70533752441406 4.91522216796875 L -78.70532989501953 4.91522216796875 L -78.70474243164062 4.915244102478027 L -78.70421600341797 4.915263652801514 L -78.70421600341797 4.4903411865234375 L -78.70421600341797 4.487399101257324 L -78.70421600341797 4.465350151062012 L -78.70421600341797 4.458024978637695 L -78.70421600341797 4.457446098327637 L -78.70421600341797 4.4535369873046875 L -78.70408630371094 4.453500747680664 L -78.70384216308594 4.453427791595459 L -78.70349884033203 4.453327178955078 L -78.63245391845703 4.432371139526367 L -78.20800018310547 4.3081440925598145 L -78.16183471679688 4.294631481170654 L -78.12300109863281 4.283330917358398 L -77.86624908447266 4.20861291885376 L -77.17529296875 4.003434658050537 L -76.74655151367188 3.8759565353393555 L -76.60481262207031 3.8338143825531006 L -75.81877899169922 3.596632480621338 L -74.86846923828125 3.310520648956299 L -74.1484375 3.0896027088165283 L -73.72799682617188 2.9603333473205566 L -72.71805572509766 2.6498117446899414 L -72.68795013427734 2.6405560970306396 L -72.22261047363281 2.4939608573913574 L -70.09992980957031 1.826241135597229 L -70.09471130371094 1.8245527744293213 L -70.0862045288086 1.8217926025390625 L -70.0748519897461 1.8181076049804688 L -68.4010009765625 0.2367878854274751 L -68.14924621582031 1.1102230246251565e-16 L -67.14862823486328 -0.9411198496818541 L -66.73634338378906 -1.3432409763336182 L -66.3022689819336 -1.7673276662826538 L -66.30158233642578 -1.7680000066757202 L -67.14862823486328 -2.5951175689697266 L -67.18985748291016 -2.63399338722229 L -70.07329559326172 -5.352644920349121 L -70.0748519897461 -5.354115962982178 L -70.09992980957031 -5.362241268157959 L -70.10686492919922 -5.364426136016846 L -70.20702362060547 -5.395940780639648 L -72.68795013427734 -6.17655611038208 L -73.2381820678711 -6.345422267913818 L -73.72799682617188 -6.495977401733398 L -74.86846923828125 -6.846520900726318 L -75.01364135742188 -6.890316009521484 L -75.61620330810547 -7.0720930099487305 L -76.60481262207031 -7.369814395904541 L -77.29995727539062 -7.576257228851318 L -77.86624908447266 -7.744613170623779 L -77.90727996826172 -7.756618499755859 L -78.12300109863281 -7.819737434387207 L -78.34402465820312 -7.884408473968506 L -78.63245391845703 -7.968371391296387 L -78.70341491699219 -7.988834381103516 L -78.70394897460938 -7.988988876342773 L -78.70407104492188 -7.9890241622924805 L -78.70421600341797 -7.989065170288086 L -78.70421600341797 -7.989259719848633 L -78.70421600341797 -7.9897990226745605 L -78.70421600341797 -7.993290424346924 L -78.70421600341797 -8.002046585083008 L -78.70421600341797 -8.003668785095215 L -78.70421600341797 -8.022963523864746 L -78.70421600341797 -8.192000389099121 L -78.70421600341797 -8.450645446777344 L -78.70421600341797 -8.451263427734375 L -78.7063217163086 -8.45118522644043 L -78.92400360107422 -8.44314193725586 L -81.91999816894531 -8.332440376281738 L -82.75061798095703 -8.301749229431152 L -85.73316955566406 -8.192000389099121 L -88.70658111572266 -8.082587242126465 L -88.70767211914062 -8.082547187805176 L -88.70783233642578 -8.082540512084961 L -88.70797729492188 -8.082535743713379 L -88.70802307128906 -8.082533836364746 L -88.70805358886719 -8.192000389099121 L -88.70829772949219 -9.03186321258545 L -88.70797729492188 -10.847518920898438 L -88.70832061767578 -12.92027473449707 L -88.70834350585938 -15.356922149658203 L -88.70811462402344 -16.384000778198242 L -88.70811462402344 -16.41127586364746 L -84.38732147216797 -16.47941780090332 L -78.70649719238281 -16.569000244140625 L -78.70647430419922 -16.40486717224121 L -78.70647430419922 -16.402015686035156 L -78.70647430419922 -16.389793395996094 L -78.70647430419922 -16.388957977294922 L -78.70647430419922 -16.384000778198242 L -78.70647430419922 -16.382413864135742 L -78.70647430419922 -16.381500244140625 L -78.70647430419922 -16.38145637512207 L -78.70631408691406 -16.381425857543945 L -78.70518493652344 -16.381206512451172 L -78.70508575439453 -16.381187438964844 L -78.7049789428711 -16.381166458129883 L -78.70421600341797 -16.381017684936523 L -78.70408630371094 -16.380992889404297 L -78.7039566040039 -16.38096809387207 L -78.7022476196289 -16.380634307861328 L -78.67354583740234 -16.375045776367188 L -78.589599609375 -16.358699798583984 L -78.55130004882812 -16.351085662841797 L -78.20800018310547 -16.283794403076172 L -78.12300109863281 -16.267131805419922 L -78.12267303466797 -16.26706886291504 L -77.88701629638672 -16.220876693725586 L -77.78558349609375 -16.201101303100586 L -76.65328979492188 -15.976752281188965 L -76.52386474609375 -15.951181411743164 L -74.88996887207031 -15.623461723327637 L -74.78800964355469 -15.60299015045166 L -73.72799682617188 -15.386839866638184 L -72.72521209716797 -15.182358741760254 L -72.62699127197266 -15.162330627441406 L -72.6171875 -15.15977668762207 L -72.6080322265625 -15.157392501831055 L -72.60608673095703 -15.156871795654297 L -70.02293395996094 -14.465925216674805 L -70.01991271972656 -14.465116500854492 L -69.68853759765625 -14.373900413513184 L -67.06875610351562 -13.652949333190918 L -66.22533416748047 -13.412071228027344 L -65.53600311279297 -13.21513843536377 L -63.817203521728516 -12.724103927612305 L -63.805320739746094 -12.720707893371582 L -62.22744369506836 -12.252257347106934 L -60.28572463989258 -11.675948143005371 L -57.707496643066406 -10.873604774475098 L -57.34400177001953 -10.760465621948242 L -56.606712341308594 -10.530984878540039 L -56.56905746459961 -10.519264221191406 L -52.86704635620117 -9.301950454711914 L -52.86686706542969 -9.301858901977539 L -52.71943283081055 -9.22564697265625 L -52.58095169067383 -9.149578094482422 L -50.837867736816406 -8.192000389099121 L -49.152000427246094 -7.265854358673096 L -48.818695068359375 -7.08275032043457 L -48.80341720581055 -7.074356555938721 L -45.67939376831055 -5.230978012084961 L -45.67918014526367 -5.2306084632873535 L -44.916725158691406 -3.9198620319366455 L -44.88707733154297 -3.8688910007476807 L -43.758792877197266 -1.7680000066757202 M -78.70556640625 4.915213584899902 L -78.70556640625 4.915213584899902 z" fill="none" stroke="rgb(255,0,0)" stroke-width="0.001mm" />
</svg>