<?xml version="1.0" standalone="no"?>
<!DOCTYPE svg PUBLIC "-//W3C//DTD SVG 1.1//EN"
  "http://www.w3.org/Graphics/SVG/1.1/DTD/svg11.dtd">
<svg width="30.422874450683594mm" height="23.434707641601562mm" viewBox="-79.54887390136719 35.71464538574219 30.422874450683594 23.434707641601562" xmlns="http://www.w3.org/2000/svg" version="1.1">
	<title>svgOutput</title>
	<desc>made with tinkercad</desc>
<path d="M -78.54832458496094 57.85844802856445 L -78.54841613769531 57.34400177001953 L -78.54853820800781 56.628562927246094 L -78.54855346679688 56.54029846191406 L -78.54887390136719 54.49063491821289 L -78.54850769042969 53.144535064697266 L -78.5483627319336 52.60114669799805 L -78.548095703125 50.821678161621094 L -78.54808044433594 49.152000427246094 L -78.54808044433594 49.110015869140625 L -78.54833984375 47.43199920654297 L -78.54808044433594 45.75398254394531 L -78.548095703125 44.042320251464844 L -78.5483627319336 42.26285171508789 L -78.54871368408203 40.959999084472656 L -78.54887390136719 40.37336730957031 L -78.54855346679688 38.32370376586914 L -78.54832458496094 37.00555419921875 L -78.51499938964844 37.00458526611328 L -71.37726593017578 36.797245025634766 L -68.5469741821289 36.71464538574219 L -68.5469741821289 36.715030670166016 L -68.54691314697266 36.96754455566406 L -68.54691314697266 36.974342346191406 L -68.54691314697266 36.97732925415039 L -68.54691314697266 36.9774284362793 L -68.54691314697266 36.97773742675781 L -68.5462875366211 36.97789001464844 L -68.5461196899414 36.97793197631836 L -68.4194107055664 37.00956344604492 L -68.39208221435547 37.0163688659668 L -67.90299987792969 37.139381408691406 L -67.6849136352539 37.194236755371094 L -67.62586212158203 37.2089958190918 L -66.41856384277344 37.512664794921875 L -66.39634704589844 37.518253326416016 L -66.36467742919922 37.52626037597656 L -65.79110717773438 37.6732292175293 L -65.79015350341797 37.673614501953125 L -65.53600311279297 37.775691986083984 L -64.62867736816406 38.14011764526367 L -64.42159271240234 38.224632263183594 L -62.480743408203125 39.01882553100586 L -62.44772720336914 39.03233337402344 L -61.679595947265625 39.35464859008789 L -59.92194747924805 40.0914192199707 L -59.86024856567383 40.11728286743164 L -58.14998245239258 40.85700988769531 L -57.9116096496582 40.959999084472656 L -56.909671783447266 41.39289093017578 L -53.74795913696289 42.809261322021484 L -53.685516357421875 42.83726119995117 L -53.646324157714844 42.854835510253906 L -53.41975784301758 42.96052169799805 L -53.419002532958984 42.961544036865234 L -50.125999450683594 47.43199920654297 L -51.39198303222656 49.152000427246094 L -51.79331588745117 49.697261810302734 L -53.41975784301758 51.903480529785156 L -53.58575439453125 51.98092269897461 L -53.646324157714844 52.00916290283203 L -56.0786018371582 53.09828186035156 L -56.909671783447266 53.471107482910156 L -56.95542526245117 53.49090576171875 L -57.34400177001953 53.65903091430664 L -58.49192810058594 54.15571594238281 L -59.86024856567383 54.7467155456543 L -60.7781982421875 55.13200378417969 L -62.44772720336914 55.8316650390625 L -62.882999420166016 56.009212493896484 L -64.62867736816406 56.72388458251953 L -64.74935150146484 56.772396087646484 L -65.05131530761719 56.8936653137207 L -65.53600311279297 57.08831787109375 L -65.79110717773438 57.19076919555664 L -66.32518768310547 57.3276252746582 L -66.36467742919922 57.337738037109375 L -66.38957977294922 57.34400177001953 L -67.53466796875 57.63193130493164 L -67.62586212158203 57.65500259399414 L -67.90299987792969 57.7247200012207 L -68.31311798095703 57.8278923034668 L -68.39208221435547 57.84762954711914 L -68.4471435546875 57.86137390136719 L -68.5449447631836 57.88579177856445 L -68.54569244384766 57.8859748840332 L -68.54653930664062 57.88618850708008 L -68.54691314697266 57.88628005981445 L -68.54691314697266 57.8864631652832 L -68.54691314697266 57.8867073059082 L -68.54691314697266 57.888004302978516 L -68.54691314697266 57.896644592285156 L -68.54691314697266 57.89692687988281 L -68.5469741821289 58.14935302734375 L -68.54705047607422 58.14935302734375 L -68.54725646972656 58.14934539794922 L -68.54850006103516 58.14931106567383 L -68.7040023803711 58.144798278808594 L -75.08181762695312 57.959712982177734 L -78.51499938964844 57.85942077636719 L -78.54621887207031 57.8585090637207 L -78.5468521118164 57.858489990234375 L -78.5479965209961 57.858455657958984 L -78.54832458496094 57.85844802856445 z" fill="none" stroke="rgb(255,0,0)" stroke-width="0.001mm" />
</svg>